<svg width="24" height="24" viewBox="0 0 24 24" fill="none" xmlns="http://www.w3.org/2000/svg">
<path fill-rule="evenodd" clip-rule="evenodd" d="M3.75 3C3.55109 3 3.36032 3.07902 3.21967 3.21967C3.07902 3.36032 3 3.55109 3 3.75V20.25C3 20.4489 3.07902 20.6397 3.21967 20.7803C3.36032 20.921 3.55109 21 3.75 21H20.25C20.4489 21 20.6397 20.921 20.7803 20.7803C20.921 20.6397 21 20.4489 21 20.25V3.75C21 3.55109 20.921 3.36032 20.7803 3.21967C20.6397 3.07902 20.4489 3 20.25 3H3.75ZM6 9H15V7.5H6V9ZM16.5 9H18V7.5H16.5V9ZM15 12.75H6V11.25H15V12.75ZM16.5 12.75H18V11.25H16.5V12.75ZM15 16.5H6V15H15V16.5ZM16.5 16.5H18V15H16.5V16.5Z" fill="#F0D655"/>
</svg>
