<svg width="24" height="24" viewBox="0 0 24 24" fill="none" xmlns="http://www.w3.org/2000/svg">
<path d="M6.61784 18.9999C6.16984 18.9999 5.78851 18.8426 5.47384 18.5279C5.15917 18.2133 5.00184 17.8323 5.00184 17.3849V9.45195L3.00184 10.9379C2.88784 11.0153 2.76684 11.0469 2.63884 11.0329C2.51217 11.0183 2.40384 10.9519 2.31384 10.8339C2.22384 10.7206 2.18684 10.6009 2.20284 10.4749C2.21884 10.3489 2.28384 10.2413 2.39784 10.1519L11.0518 3.71395C11.1965 3.60595 11.3508 3.52828 11.5148 3.48095C11.6788 3.43362 11.8432 3.40962 12.0078 3.40895C12.1725 3.40828 12.3392 3.43228 12.5078 3.48095C12.6765 3.52962 12.8328 3.60695 12.9768 3.71295L20.2018 9.09295C20.4285 9.26162 20.4885 9.47828 20.3818 9.74295C20.2752 10.0063 20.0812 10.1129 19.7998 10.0629C19.4305 10.0516 19.0538 10.0849 18.6698 10.1629C18.2858 10.2409 17.8965 10.3629 17.5018 10.5289C16.4245 10.0689 15.3888 9.94928 14.3948 10.1699C13.4008 10.3906 12.5038 10.9013 11.7038 11.7019C10.9038 12.5026 10.3932 13.3966 10.1718 14.3839C9.95051 15.3713 10.0702 16.4099 10.5308 17.4999C10.4695 17.6513 10.4152 17.7993 10.3678 17.9439C10.3198 18.0893 10.2812 18.2393 10.2518 18.3939C10.2098 18.5633 10.1225 18.7066 9.98984 18.8239C9.85717 18.9413 9.69984 18.9999 9.51784 18.9999H6.61784ZM17.5018 21.7599C16.7505 22.2813 16.0148 22.5303 15.2948 22.5069C14.5748 22.4836 13.9342 22.1909 13.3728 21.6289C12.8115 21.0676 12.5188 20.4236 12.4948 19.6969C12.4715 18.9703 12.7205 18.2379 13.2418 17.4999C12.7205 16.7486 12.4715 16.0129 12.4948 15.2929C12.5182 14.5729 12.8108 13.9323 13.3728 13.3709C13.9348 12.8096 14.5788 12.5169 15.3048 12.4929C16.0315 12.4696 16.7638 12.7189 17.5018 13.2409C18.2532 12.7189 18.9888 12.4696 19.7088 12.4929C20.4288 12.5163 21.0695 12.8089 21.6308 13.3709C22.1922 13.933 22.4848 14.577 22.5088 15.3029C22.5328 16.0289 22.2835 16.7613 21.7608 17.4999C22.2828 18.2513 22.5322 18.9869 22.5088 19.7069C22.4855 20.4269 22.1928 21.0676 21.6308 21.6289C21.0688 22.1903 20.4248 22.4829 19.6988 22.5069C18.9728 22.5309 18.2405 22.2819 17.5018 21.7599ZM17.5018 18.2889C17.7238 18.2889 17.9105 18.213 18.0618 18.061C18.2145 17.9089 18.2908 17.7219 18.2908 17.4999C18.2908 17.2779 18.2148 17.0913 18.0628 16.9399C17.9108 16.7886 17.7238 16.7123 17.5018 16.7109C17.2798 16.7096 17.0932 16.7856 16.9418 16.9389C16.7892 17.0909 16.7128 17.2779 16.7128 17.4999C16.7128 17.7219 16.7888 17.9086 16.9408 18.0599C17.0928 18.2113 17.2798 18.2876 17.5018 18.2889Z" fill="#F0D655"/>
</svg>
