<svg width="24" height="25" viewBox="0 0 24 25" fill="none" xmlns="http://www.w3.org/2000/svg">
<path d="M7.39797 5.47021C6.99597 6.16621 6.99597 7.10021 6.99597 8.97021V11.9972C7.42597 11.9702 7.90997 11.9702 8.43097 11.9702H15.561C16.081 11.9702 16.566 11.9702 16.996 11.9972V8.97021C16.996 7.10021 16.996 6.16621 16.594 5.47021C16.3307 5.01419 15.952 4.63551 15.496 4.37221C14.8 3.97021 13.866 3.97021 11.996 3.97021C10.126 3.97021 9.19197 3.97021 8.49597 4.37221C8.03995 4.63551 7.66126 5.01419 7.39797 5.47021ZM6.24597 16.9612C5.74397 16.9412 5.43997 16.8732 5.23197 16.6462C4.93497 16.3222 4.97397 15.8722 5.05197 14.9712C5.10697 14.3212 5.23297 13.8832 5.51897 13.5562C6.03097 12.9702 6.85397 12.9702 8.50097 12.9702H15.491C17.138 12.9702 17.961 12.9702 18.473 13.5562C18.759 13.8822 18.885 14.3202 18.941 14.9712C19.018 15.8712 19.057 16.3222 18.76 16.6462C18.552 16.8732 18.248 16.9412 17.746 16.9612V21.9702C17.746 22.1691 17.667 22.3599 17.5263 22.5005C17.3856 22.6412 17.1949 22.7202 16.996 22.7202C16.7971 22.7202 16.6063 22.6412 16.4656 22.5005C16.325 22.3599 16.246 22.1691 16.246 21.9702V16.9702H7.74597V21.9702C7.74597 22.1691 7.66695 22.3599 7.5263 22.5005C7.38565 22.6412 7.19488 22.7202 6.99597 22.7202C6.79706 22.7202 6.60629 22.6412 6.46564 22.5005C6.32499 22.3599 6.24597 22.1691 6.24597 21.9702V16.9612Z" fill="#F0D655"/>
</svg>
