<svg width="24" height="24" viewBox="0 0 24 24" fill="none" xmlns="http://www.w3.org/2000/svg">
<path d="M10.803 2.92749C11.1407 2.65112 11.5636 2.50012 12 2.50012C12.4364 2.50012 12.8593 2.65112 13.197 2.92749L19.7845 8.29849C20.0087 8.48226 20.1891 8.71357 20.3129 8.97568C20.4366 9.23779 20.5005 9.52414 20.5 9.81399V19.5565C20.5 20.63 19.644 21.5 18.5875 21.5H5.4125C4.3565 21.5 3.5 20.63 3.5 19.5565V9.81399C3.49946 9.52414 3.56338 9.23779 3.68713 8.97568C3.81087 8.71357 3.99135 8.48226 4.2155 8.29849L10.803 2.92749ZM9.625 12.25C9.625 11.9516 9.50648 11.6655 9.2955 11.4545C9.08452 11.2435 8.79837 11.125 8.5 11.125C8.20163 11.125 7.91549 11.2435 7.70451 11.4545C7.49353 11.6655 7.375 11.9516 7.375 12.25C7.375 12.5484 7.49353 12.8345 7.70451 13.0455C7.91549 13.2565 8.20163 13.375 8.5 13.375C8.79837 13.375 9.08452 13.2565 9.2955 13.0455C9.50648 12.8345 9.625 12.5484 9.625 12.25ZM13.125 12.25C13.125 11.9516 13.0065 11.6655 12.7955 11.4545C12.5845 11.2435 12.2984 11.125 12 11.125C11.7016 11.125 11.4155 11.2435 11.2045 11.4545C10.9935 11.6655 10.875 11.9516 10.875 12.25C10.875 12.5484 10.9935 12.8345 11.2045 13.0455C11.4155 13.2565 11.7016 13.375 12 13.375C12.2984 13.375 12.5845 13.2565 12.7955 13.0455C13.0065 12.8345 13.125 12.5484 13.125 12.25ZM16.625 12.25C16.625 11.9516 16.5065 11.6655 16.2955 11.4545C16.0845 11.2435 15.7984 11.125 15.5 11.125C15.2016 11.125 14.9155 11.2435 14.7045 11.4545C14.4935 11.6655 14.375 11.9516 14.375 12.25C14.375 12.5484 14.4935 12.8345 14.7045 13.0455C14.9155 13.2565 15.2016 13.375 15.5 13.375C15.7984 13.375 16.0845 13.2565 16.2955 13.0455C16.5065 12.8345 16.625 12.5484 16.625 12.25ZM13.125 15.75C13.125 15.4516 13.0065 15.1655 12.7955 14.9545C12.5845 14.7435 12.2984 14.625 12 14.625C11.7016 14.625 11.4155 14.7435 11.2045 14.9545C10.9935 15.1655 10.875 15.4516 10.875 15.75C10.875 16.0484 10.9935 16.3345 11.2045 16.5455C11.4155 16.7565 11.7016 16.875 12 16.875C12.2984 16.875 12.5845 16.7565 12.7955 16.5455C13.0065 16.3345 13.125 16.0484 13.125 15.75ZM9.625 15.75C9.625 15.4516 9.50648 15.1655 9.2955 14.9545C9.08452 14.7435 8.79837 14.625 8.5 14.625C8.20163 14.625 7.91549 14.7435 7.70451 14.9545C7.49353 15.1655 7.375 15.4516 7.375 15.75C7.375 16.0484 7.49353 16.3345 7.70451 16.5455C7.91549 16.7565 8.20163 16.875 8.5 16.875C8.79837 16.875 9.08452 16.7565 9.2955 16.5455C9.50648 16.3345 9.625 16.0484 9.625 15.75ZM16.625 15.75C16.625 15.4516 16.5065 15.1655 16.2955 14.9545C16.0845 14.7435 15.7984 14.625 15.5 14.625C15.2016 14.625 14.9155 14.7435 14.7045 14.9545C14.4935 15.1655 14.375 15.4516 14.375 15.75C14.375 16.0484 14.4935 16.3345 14.7045 16.5455C14.9155 16.7565 15.2016 16.875 15.5 16.875C15.7984 16.875 16.0845 16.7565 16.2955 16.5455C16.5065 16.3345 16.625 16.0484 16.625 15.75Z" fill="#F0D655"/>
</svg>
