<svg width="24" height="24" viewBox="0 0 24 24" fill="none" xmlns="http://www.w3.org/2000/svg">
<path d="M17.997 4.17C18.5827 4.37638 19.09 4.75945 19.4487 5.26635C19.8075 5.77324 20.0001 6.37899 20 7V19C20 19.7956 19.6839 20.5587 19.1213 21.1213C18.5587 21.6839 17.7956 22 17 22H7C6.20435 22 5.44129 21.6839 4.87868 21.1213C4.31607 20.5587 4 19.7956 4 19V7C3.99989 6.37899 4.19251 5.77324 4.55128 5.26635C4.91005 4.75945 5.41728 4.37638 6.003 4.17C6.04684 5.20061 6.48713 6.17443 7.23194 6.88812C7.97674 7.6018 8.96846 8.00016 10 8H14C14.9912 8.00009 15.947 7.63219 16.6824 6.96761C17.4177 6.30303 17.8801 5.38911 17.98 4.403L17.997 4.17ZM14 2C14.5304 2 15.0391 2.21071 15.4142 2.58579C15.7893 2.96086 16 3.46957 16 4C16 4.53043 15.7893 5.03914 15.4142 5.41421C15.0391 5.78929 14.5304 6 14 6H10C9.46957 6 8.96086 5.78929 8.58579 5.41421C8.21071 5.03914 8 4.53043 8 4C8 3.46957 8.21071 2.96086 8.58579 2.58579C8.96086 2.21071 9.46957 2 10 2H14Z" fill="#F0D655"/>
</svg>
