<svg width="24" height="24" viewBox="0 0 24 24" fill="none" xmlns="http://www.w3.org/2000/svg">
<path fill-rule="evenodd" clip-rule="evenodd" d="M13.2281 2.68799C12.877 2.41488 12.4449 2.2666 12.0001 2.2666C11.5553 2.2666 11.1232 2.41488 10.7721 2.68799L2.3881 9.20799C1.6361 9.79499 2.0501 11 3.0031 11H4.0951L4.9151 19.199C4.96445 19.6925 5.19541 20.1501 5.56314 20.4829C5.93087 20.8157 6.40914 21 6.9051 21H17.0951C17.5911 21 18.0693 20.8157 18.4371 20.4829C18.8048 20.1501 19.0358 19.6925 19.0851 19.199L19.9051 11H20.9971C21.9491 11 22.3651 9.79499 21.6121 9.20899L13.2281 2.68799ZM12.0001 16C12.7958 16 13.5588 15.6839 14.1214 15.1213C14.684 14.5587 15.0001 13.7956 15.0001 13C15.0001 12.2043 14.684 11.4413 14.1214 10.8787C13.5588 10.3161 12.7958 9.99999 12.0001 9.99999C11.2045 9.99999 10.4414 10.3161 9.87878 10.8787C9.31617 11.4413 9.0001 12.2043 9.0001 13C9.0001 13.7956 9.31617 14.5587 9.87878 15.1213C10.4414 15.6839 11.2045 16 12.0001 16Z" fill="#F0D655"/>
</svg>
