<svg width="24" height="25" viewBox="0 0 24 25" fill="none" xmlns="http://www.w3.org/2000/svg">
<path d="M5.56281 6.13519L11.1168 9.83819C11.3908 10.0208 11.6155 10.2682 11.771 10.5585C11.9264 10.8487 12.0078 11.1729 12.0078 11.5022V21.9672C12.0078 22.1482 11.9587 22.3259 11.8657 22.4812C11.7727 22.6365 11.6392 22.7637 11.4796 22.8491C11.3199 22.9345 11.1401 22.9749 10.9593 22.9662C10.7785 22.9574 10.6034 22.8997 10.4528 22.7992L4.89881 19.0972C4.62465 18.9145 4.39987 18.6669 4.24443 18.3765C4.08899 18.086 4.00771 17.7616 4.00781 17.4322V6.96719C4.00779 6.78615 4.05691 6.60849 4.14994 6.45318C4.24297 6.29787 4.37642 6.17073 4.53605 6.08532C4.69568 5.99991 4.8755 5.95944 5.05633 5.96822C5.23716 5.977 5.41221 6.03471 5.56281 6.13519ZM8.53581 4.08519C8.69548 3.99975 8.87535 3.95928 9.05623 3.96808C9.23711 3.97689 9.4122 4.03465 9.56281 4.13519L15.1168 7.83819C15.3908 8.02077 15.6155 8.26819 15.771 8.55847C15.9264 8.84875 16.0078 9.17292 16.0078 9.50219V19.9672C16.0078 20.1482 15.9587 20.3259 15.8657 20.4812C15.7727 20.6365 15.6392 20.7637 15.4796 20.8491C15.3199 20.9345 15.1401 20.9749 14.9593 20.9662C14.7785 20.9574 14.6034 20.8997 14.4528 20.7992L13.5078 20.1692V11.5022C13.5077 10.926 13.3654 10.3587 13.0934 9.85072C12.8215 9.34273 12.4283 8.90974 11.9488 8.59019L8.00781 5.96219V4.96719C8.00774 4.78615 8.05682 4.60849 8.14981 4.45315C8.24279 4.29782 8.37621 4.17064 8.53581 4.08519ZM13.5628 2.13519L19.1168 5.83819C19.3908 6.02077 19.6155 6.26819 19.771 6.55847C19.9264 6.84875 20.0078 7.17292 20.0078 7.50219V17.9672C20.0078 18.1482 19.9587 18.3259 19.8657 18.4812C19.7727 18.6365 19.6392 18.7637 19.4796 18.8491C19.3199 18.9345 19.1401 18.9749 18.9593 18.9662C18.7785 18.9574 18.6034 18.8997 18.4528 18.7992L17.5078 18.1692V9.50219C17.5077 8.92598 17.3654 8.35871 17.0934 7.85072C16.8215 7.34273 16.4283 6.90974 15.9488 6.59019L12.0078 3.96219V2.96719C12.0078 2.78615 12.0569 2.60849 12.1499 2.45318C12.243 2.29787 12.3764 2.17073 12.536 2.08532C12.6957 1.99991 12.8755 1.95944 13.0563 1.96822C13.2372 1.977 13.4122 2.03471 13.5628 2.13519Z" fill="#F0D655"/>
</svg>
