<svg width="24" height="25" viewBox="0 0 24 25" fill="none" xmlns="http://www.w3.org/2000/svg">
<path d="M4.00391 19.9717V10.9717C4.00391 10.655 4.07491 10.355 4.21691 10.0717C4.35891 9.78835 4.55457 9.55501 4.80391 9.37168L10.8039 4.87168C11.1539 4.60501 11.5539 4.47168 12.0039 4.47168C12.4539 4.47168 12.8539 4.60501 13.2039 4.87168L19.2039 9.37168C19.4539 9.55501 19.6499 9.78835 19.7919 10.0717C19.9339 10.355 20.0046 10.655 20.0039 10.9717V19.9717C20.0039 20.5217 19.8079 20.9927 19.4159 21.3847C19.0239 21.7767 18.5532 21.9723 18.0039 21.9717H15.0039C14.7206 21.9717 14.4832 21.8757 14.2919 21.6837C14.1006 21.4917 14.0046 21.2543 14.0039 20.9717V15.9717C14.0039 15.6883 13.9079 15.451 13.7159 15.2597C13.5239 15.0683 13.2866 14.9723 13.0039 14.9717H11.0039C10.7206 14.9717 10.4832 15.0677 10.2919 15.2597C10.1006 15.4517 10.0046 15.689 10.0039 15.9717V20.9717C10.0039 21.255 9.90791 21.4927 9.71591 21.6847C9.52391 21.8767 9.28657 21.9723 9.00391 21.9717H6.00391C5.45391 21.9717 4.98324 21.776 4.59191 21.3847C4.20057 20.9933 4.00457 20.5223 4.00391 19.9717Z" fill="#F0D655"/>
</svg>
