<svg width="24" height="24" viewBox="0 0 24 24" fill="none" xmlns="http://www.w3.org/2000/svg">
<path d="M12.017 9.15608C11.3162 9.15608 10.6599 9.42795 10.1631 9.92483C9.66854 10.4217 9.39432 11.078 9.39432 11.7787C9.39432 12.4795 9.66854 13.1358 10.1631 13.6326C10.6599 14.1272 11.3162 14.4014 12.017 14.4014C12.7178 14.4014 13.374 14.1272 13.8709 13.6326C14.3654 13.1358 14.6396 12.4795 14.6396 11.7787C14.6396 11.078 14.3654 10.4217 13.8709 9.92483C13.6282 9.68027 13.3393 9.48638 13.0211 9.35441C12.7028 9.22244 12.3615 9.15503 12.017 9.15608ZM21.6803 14.6756L20.1474 13.3655C20.2201 12.9201 20.2576 12.4655 20.2576 12.0131C20.2576 11.5608 20.2201 11.1037 20.1474 10.6608L21.6803 9.35061C21.7961 9.25148 21.8789 9.11946 21.9179 8.97209C21.9568 8.82472 21.9499 8.66899 21.8982 8.52561L21.8771 8.46467C21.4553 7.28504 20.8232 6.1916 20.0115 5.23733L19.9693 5.18811C19.8708 5.07222 19.7394 4.98891 19.5925 4.94916C19.4457 4.90941 19.2902 4.91509 19.1467 4.96545L17.2435 5.6428C16.5404 5.06623 15.7576 4.61155 14.9092 4.29514L14.5412 2.3053C14.5134 2.1554 14.4407 2.01749 14.3327 1.9099C14.2247 1.80231 14.0865 1.73013 13.9365 1.70295L13.8732 1.69124C12.6545 1.47092 11.3701 1.47092 10.1514 1.69124L10.0881 1.70295C9.93807 1.73013 9.79988 1.80231 9.69187 1.9099C9.58386 2.01749 9.51115 2.1554 9.48339 2.3053L9.11307 4.30452C8.27266 4.62343 7.48977 5.07702 6.7951 5.64748L4.87792 4.96545C4.7344 4.91469 4.57883 4.90881 4.43189 4.94858C4.28495 4.98835 4.15358 5.07189 4.05526 5.18811L4.01307 5.23733C3.20281 6.19261 2.57088 7.28578 2.14745 8.46467L2.12635 8.52561C2.02089 8.81858 2.1076 9.1467 2.34432 9.35061L3.89589 10.6748C3.82323 11.1155 3.78807 11.5655 3.78807 12.0108C3.78807 12.4608 3.82323 12.9108 3.89589 13.3467L2.34901 14.6709C2.23322 14.77 2.15035 14.9021 2.11141 15.0494C2.07247 15.1968 2.07932 15.3525 2.13104 15.4959L2.15214 15.5569C2.57635 16.7358 3.20214 17.8256 4.01776 18.7842L4.05995 18.8334C4.15851 18.9493 4.28988 19.0326 4.43673 19.0724C4.58359 19.1121 4.73904 19.1064 4.8826 19.0561L6.79979 18.374C7.49823 18.9483 8.27635 19.403 9.11776 19.717L9.48807 21.7162C9.51584 21.8661 9.58855 22.004 9.69656 22.1116C9.80457 22.2192 9.94275 22.2914 10.0928 22.3186L10.156 22.3303C11.3868 22.5518 12.6472 22.5518 13.8779 22.3303L13.9412 22.3186C14.0912 22.2914 14.2294 22.2192 14.3374 22.1116C14.4454 22.004 14.5181 21.8661 14.5459 21.7162L14.9139 19.7264C15.7623 19.4076 16.5451 18.9553 17.2482 18.3787L19.1514 19.0561C19.2949 19.1068 19.4504 19.1127 19.5974 19.073C19.7443 19.0332 19.8757 18.9496 19.974 18.8334L20.0162 18.7842C20.8318 17.8209 21.4576 16.7358 21.8818 15.5569L21.9029 15.4959C22.0037 15.2053 21.917 14.8795 21.6803 14.6756ZM12.017 15.899C9.7412 15.899 7.89667 14.0545 7.89667 11.7787C7.89667 9.50295 9.7412 7.65842 12.017 7.65842C14.2928 7.65842 16.1373 9.50295 16.1373 11.7787C16.1373 14.0545 14.2928 15.899 12.017 15.899Z" fill="#F0D655"/>
</svg>
