<svg width="24" height="24" viewBox="0 0 24 24" fill="none" xmlns="http://www.w3.org/2000/svg">
<path d="M8.39994 6.76303C8.14894 6.86303 8.01694 6.95903 7.97794 6.99803L6.56394 5.58403L9.30094 2.84703C10.4139 1.73403 12.3539 1.75003 13.6379 3.03403L14.7969 4.19303C14.9862 4.01571 15.237 3.91888 15.4964 3.92299C15.7557 3.92709 16.0033 4.03181 16.1869 4.21503L20.2919 8.32003C20.4753 8.50349 20.5802 8.75103 20.5845 9.01038C20.5888 9.26972 20.4921 9.52059 20.3149 9.71003L21.6599 11.056C21.7529 11.1489 21.8267 11.2592 21.877 11.3806C21.9273 11.502 21.9532 11.6321 21.9532 11.7635C21.9532 11.8949 21.9273 12.0251 21.877 12.1465C21.8267 12.2679 21.7529 12.3782 21.6599 12.471L19.6079 14.523C19.4204 14.7105 19.1661 14.8158 18.9009 14.8158C18.6358 14.8158 18.3815 14.7105 18.1939 14.523L16.8479 13.177C16.6701 13.3436 16.4374 13.4395 16.1938 13.4467C15.9502 13.4539 15.7123 13.3719 15.5249 13.216L11.2899 8.98303C11.134 8.79544 11.0519 8.55731 11.0593 8.31346C11.0667 8.0696 11.1629 7.83685 11.3299 7.65903L10.4809 6.81103C10.3009 6.63103 9.87494 6.48903 9.22294 6.56103C8.94073 6.59263 8.66477 6.66052 8.39994 6.76303ZM9.91894 10.438L3.82794 16.53C3.64047 16.7176 3.53516 16.9719 3.53516 17.237C3.53516 17.5022 3.64047 17.7565 3.82794 17.944L6.56394 20.681C6.75147 20.8685 7.00578 20.9738 7.27094 20.9738C7.53611 20.9738 7.79042 20.8685 7.97794 20.681L14.0689 14.59L9.91894 10.44V10.438Z" fill="#F0D655"/>
</svg>
