<svg width="82" height="24" viewBox="0 0 82 24" fill="none" xmlns="http://www.w3.org/2000/svg">
<path d="M19.0938 2.45392L0.00154877 21.5461V2.45392H5.16825V8.48168L11.196 2.45392L19.0938 2.45392Z" fill="black"/>
<path d="M33.4517 4.45455L37.7699 16.6989H37.9403L42.2585 4.45455H44.1051L38.7642 19H36.946L31.6051 4.45455H33.4517ZM45.7435 19V8.09091H47.4196V19H45.7435ZM46.5957 6.27273C46.269 6.27273 45.9873 6.16146 45.7506 5.93892C45.5186 5.71638 45.4026 5.44886 45.4026 5.13636C45.4026 4.82386 45.5186 4.55634 45.7506 4.33381C45.9873 4.11127 46.269 4 46.5957 4C46.9224 4 47.2018 4.11127 47.4338 4.33381C47.6705 4.55634 47.7889 4.82386 47.7889 5.13636C47.7889 5.44886 47.6705 5.71638 47.4338 5.93892C47.2018 6.16146 46.9224 6.27273 46.5957 6.27273ZM57.8168 10.5341L56.3112 10.9602C56.2165 10.7093 56.0768 10.4654 55.8921 10.2287C55.7122 9.98722 55.466 9.78835 55.1535 9.6321C54.841 9.47585 54.4409 9.39773 53.9532 9.39773C53.2856 9.39773 52.7292 9.55161 52.2842 9.85938C51.8438 10.1624 51.6237 10.5483 51.6237 11.017C51.6237 11.4337 51.7752 11.7628 52.0782 12.0043C52.3812 12.2457 52.8547 12.447 53.4987 12.608L55.118 13.0057C56.0933 13.2424 56.8201 13.6046 57.2984 14.0923C57.7766 14.5753 58.0157 15.1979 58.0157 15.9602C58.0157 16.5852 57.8358 17.1439 57.4759 17.6364C57.1208 18.1288 56.6237 18.517 55.9844 18.8011C55.3452 19.0852 54.6019 19.2273 53.7543 19.2273C52.6416 19.2273 51.7207 18.9858 50.9915 18.5028C50.2624 18.0199 49.8007 17.3144 49.6066 16.3864L51.1975 15.9886C51.349 16.5758 51.6355 17.0161 52.0569 17.3097C52.483 17.6032 53.0394 17.75 53.7259 17.75C54.5072 17.75 55.1274 17.5843 55.5867 17.2528C56.0507 16.9167 56.2827 16.5142 56.2827 16.0455C56.2827 15.6667 56.1502 15.3494 55.885 15.0938C55.6199 14.8333 55.2127 14.6392 54.6634 14.5114L52.8452 14.0852C51.8462 13.8485 51.1123 13.4815 50.6435 12.9844C50.1795 12.4825 49.9475 11.8551 49.9475 11.1023C49.9475 10.4867 50.1203 9.94223 50.466 9.46875C50.8164 8.99527 51.2922 8.62358 51.8935 8.35369C52.4996 8.08381 53.1862 7.94886 53.9532 7.94886C55.0327 7.94886 55.8803 8.18561 56.4958 8.65909C57.1161 9.13258 57.5564 9.75758 57.8168 10.5341ZM64.8831 8.09091V9.51136H59.2297V8.09091H64.8831ZM60.8774 5.47727H62.5536V15.875C62.5536 16.3485 62.6222 16.7036 62.7595 16.9403C62.9016 17.1723 63.0815 17.3286 63.2993 17.4091C63.5218 17.4848 63.7562 17.5227 64.0024 17.5227C64.1871 17.5227 64.3386 17.5133 64.457 17.4943C64.5753 17.4706 64.67 17.4517 64.7411 17.4375L65.082 18.9432C64.9683 18.9858 64.8097 19.0284 64.6061 19.071C64.4025 19.1184 64.1445 19.142 63.832 19.142C63.3585 19.142 62.8945 19.0402 62.4399 18.8366C61.9901 18.633 61.6161 18.3229 61.3178 17.9062C61.0242 17.4896 60.8774 16.964 60.8774 16.3295V5.47727ZM70.2146 19.2557C69.5233 19.2557 68.896 19.1255 68.3325 18.8651C67.7691 18.5999 67.3216 18.2188 66.9902 17.7216C66.6588 17.2197 66.493 16.6136 66.493 15.9034C66.493 15.2784 66.6161 14.7718 66.8624 14.3835C67.1086 13.9905 67.4376 13.6828 67.8496 13.4602C68.2615 13.2377 68.7161 13.072 69.2132 12.9631C69.7151 12.8494 70.2194 12.7595 70.726 12.6932C71.3889 12.608 71.9263 12.544 72.3382 12.5014C72.7549 12.4541 73.0579 12.3759 73.2473 12.267C73.4414 12.1581 73.5385 11.9687 73.5385 11.6989V11.642C73.5385 10.9413 73.3467 10.3968 72.9632 10.0085C72.5844 9.62027 72.0091 9.42614 71.2374 9.42614C70.4372 9.42614 69.8098 9.60133 69.3553 9.9517C68.9007 10.3021 68.5811 10.6761 68.3965 11.0739L66.8055 10.5057C67.0896 9.8428 67.4684 9.3267 67.9419 8.95739C68.4201 8.58333 68.941 8.32292 69.5044 8.17614C70.0726 8.02462 70.6313 7.94886 71.1805 7.94886C71.5309 7.94886 71.9334 7.99148 72.3879 8.0767C72.8472 8.1572 73.2899 8.32528 73.7161 8.58097C74.1469 8.83665 74.5044 9.22254 74.7885 9.73864C75.0726 10.2547 75.2146 10.946 75.2146 11.8125V19H73.5385V17.5227H73.4533C73.3396 17.7595 73.1502 18.0128 72.8851 18.2827C72.6199 18.5526 72.2672 18.7822 71.8268 18.9716C71.3865 19.161 70.8491 19.2557 70.2146 19.2557ZM70.4703 17.75C71.1332 17.75 71.6919 17.6198 72.1465 17.3594C72.6057 17.099 72.9514 16.7628 73.1834 16.3509C73.4201 15.9389 73.5385 15.5057 73.5385 15.0511V13.517C73.4675 13.6023 73.3112 13.6804 73.0697 13.7514C72.833 13.8177 72.5584 13.8769 72.2459 13.929C71.9381 13.9763 71.6375 14.0189 71.3439 14.0568C71.0551 14.09 70.8207 14.1184 70.6408 14.142C70.2052 14.1989 69.798 14.2912 69.4192 14.419C69.0451 14.5421 68.7421 14.7292 68.5101 14.9801C68.2828 15.2263 68.1692 15.5625 68.1692 15.9886C68.1692 16.571 68.3846 17.0114 68.8155 17.3097C69.2511 17.6032 69.8027 17.75 70.4703 17.75ZM79.5501 4.45455V19H77.8739V4.45455H79.5501Z" fill="black"/>
</svg>
