<svg width="1297" height="372" viewBox="0 0 1297 372" fill="none" xmlns="http://www.w3.org/2000/svg">
<path d="M45.3856 11.3359L150.38 309.049H154.524L259.518 11.3359H304.417L174.556 365H130.348L0.486848 11.3359H45.3856ZM344.252 365V99.7519H385.007V365H344.252ZM364.975 55.544C357.031 55.544 350.181 52.8385 344.425 47.4276C338.784 42.0168 335.963 35.5122 335.963 27.9139C335.963 20.3157 338.784 13.8111 344.425 8.40024C350.181 2.98937 357.031 0.283936 364.975 0.283936C372.919 0.283936 379.711 2.98937 385.352 8.40024C391.108 13.8111 393.986 20.3157 393.986 27.9139C393.986 35.5122 391.108 42.0168 385.352 47.4276C379.711 52.8385 372.919 55.544 364.975 55.544ZM637.809 159.156L601.199 169.518C598.897 163.416 595.501 157.487 591.011 151.731C586.636 145.86 580.65 141.024 573.051 137.225C565.453 133.426 555.725 131.526 543.867 131.526C527.635 131.526 514.107 135.268 503.286 142.751C492.579 150.119 487.226 159.502 487.226 170.899C487.226 181.03 490.91 189.031 498.278 194.903C505.646 200.774 517.158 205.667 532.815 209.581L572.188 219.252C595.904 225.008 613.575 233.815 625.203 245.673C636.831 257.416 642.644 272.555 642.644 291.09C642.644 306.286 638.27 319.871 629.52 331.844C620.886 343.817 608.798 353.257 593.256 360.165C577.714 367.072 559.639 370.526 539.032 370.526C511.978 370.526 489.586 364.655 471.856 352.912C454.127 341.169 442.903 324.015 438.182 301.451L476.864 291.78C480.548 306.056 487.513 316.763 497.76 323.9C508.121 331.038 521.648 334.607 538.341 334.607C557.337 334.607 572.418 330.578 583.585 322.519C594.868 314.345 600.509 304.559 600.509 293.162C600.509 283.952 597.285 276.239 590.838 270.022C584.391 263.69 574.49 258.97 561.136 255.861L516.928 245.5C492.637 239.744 474.792 230.822 463.395 218.734C452.113 206.53 446.471 191.276 446.471 172.971C446.471 158.005 450.673 144.766 459.078 133.253C467.597 121.741 479.167 112.704 493.788 106.141C508.524 99.5793 525.217 96.2982 543.867 96.2982C570.116 96.2982 590.723 102.054 605.689 113.567C620.771 125.079 631.477 140.276 637.809 159.156ZM809.621 99.7519V134.289H672.162V99.7519H809.621ZM712.225 36.2029H752.98V289.017C752.98 300.53 754.649 309.164 757.988 314.921C761.441 320.562 765.816 324.361 771.112 326.318C776.523 328.16 782.221 329.081 788.208 329.081C792.698 329.081 796.382 328.851 799.26 328.39C802.138 327.815 804.441 327.354 806.167 327.009L814.456 363.618C811.693 364.655 807.837 365.691 802.886 366.727C797.936 367.878 791.662 368.454 784.063 368.454C772.551 368.454 761.269 365.979 750.217 361.028C739.28 356.078 730.185 348.537 722.932 338.406C715.794 328.275 712.225 315.496 712.225 300.069V36.2029ZM939.254 371.217C922.446 371.217 907.192 368.051 893.492 361.719C879.792 355.272 868.913 346.004 860.854 333.916C852.795 321.713 848.766 306.977 848.766 289.708C848.766 274.512 851.759 262.193 857.746 252.753C863.732 243.198 871.733 235.715 881.749 230.304C891.765 224.893 902.817 220.863 914.905 218.216C927.109 215.453 939.369 213.265 951.688 211.653C967.805 209.581 980.872 208.027 990.888 206.991C1001.02 205.84 1008.39 203.94 1012.99 201.292C1017.71 198.644 1020.07 194.039 1020.07 187.477V186.096C1020.07 169.057 1015.41 155.818 1006.08 146.378C996.874 136.937 982.887 132.217 964.121 132.217C944.665 132.217 929.411 136.477 918.359 144.996C907.307 153.515 899.536 162.61 895.046 172.281L856.364 158.466C863.272 142.348 872.482 129.8 883.994 120.82C895.622 111.725 908.286 105.393 921.986 101.824C935.801 98.1402 949.385 96.2982 962.74 96.2982C971.259 96.2982 981.045 97.3343 992.097 99.4066C1003.26 101.364 1014.03 105.451 1024.39 111.667C1034.87 117.884 1043.56 127.267 1050.47 139.815C1057.37 152.364 1060.83 169.172 1060.83 190.24V365H1020.07V329.081H1018C1015.24 334.837 1010.63 340.996 1004.18 347.559C997.738 354.121 989.161 359.704 978.454 364.309C967.748 368.914 954.681 371.217 939.254 371.217ZM945.471 334.607C961.589 334.607 975.173 331.441 986.225 325.109C997.392 318.777 1005.8 310.603 1011.44 300.588C1017.19 290.572 1020.07 280.038 1020.07 268.986V231.685C1018.35 233.757 1014.55 235.657 1008.67 237.384C1002.92 238.996 996.241 240.435 988.643 241.701C981.16 242.852 973.849 243.888 966.712 244.809C959.689 245.615 953.99 246.306 949.616 246.882C939.024 248.263 929.123 250.508 919.913 253.617C910.818 256.61 903.45 261.157 897.809 267.259C892.283 273.245 889.52 281.419 889.52 291.78C889.52 305.941 894.758 316.647 905.235 323.9C915.826 331.038 929.238 334.607 945.471 334.607ZM1166.24 11.3359V365H1125.49V11.3359H1166.24ZM1224.76 320.059C1224.76 315.26 1225.93 310.886 1228.27 306.936C1230.61 302.986 1233.75 299.841 1237.7 297.5C1241.65 295.159 1246.03 293.989 1250.82 293.989C1254.98 293.989 1258.81 294.881 1262.32 296.666C1265.86 298.451 1268.79 300.894 1271.1 303.995C1273.41 307.068 1274.85 310.549 1275.4 314.441H1264.78C1264.2 311.427 1262.57 308.969 1259.91 307.068C1257.25 305.137 1254.22 304.171 1250.82 304.171C1247.9 304.171 1245.24 304.888 1242.84 306.322C1240.44 307.755 1238.52 309.672 1237.09 312.071C1235.65 314.47 1234.94 317.133 1234.94 320.059C1234.94 322.984 1235.65 325.647 1237.09 328.046C1238.52 330.445 1240.44 332.362 1242.84 333.796C1245.24 335.229 1247.9 335.946 1250.82 335.946C1254.22 335.946 1257.09 334.995 1259.43 333.093C1261.8 331.162 1263.29 328.69 1263.9 325.676H1274.52C1273.97 329.568 1272.61 333.064 1270.44 336.165C1268.28 339.238 1265.5 341.666 1262.1 343.451C1258.74 345.236 1254.98 346.128 1250.82 346.128C1246.03 346.128 1241.65 344.958 1237.7 342.617C1233.75 340.276 1230.61 337.131 1228.27 333.181C1225.93 329.231 1224.76 324.857 1224.76 320.059ZM1250.39 366.404C1244.01 366.404 1238.01 365.205 1232.39 362.806C1226.8 360.406 1221.87 357.086 1217.6 352.843C1213.36 348.571 1210.02 343.641 1207.59 338.053C1205.2 332.464 1204.01 326.466 1204.04 320.059C1204.07 313.651 1205.28 307.653 1207.68 302.064C1210.11 296.476 1213.45 291.56 1217.69 287.318C1221.93 283.046 1226.85 279.711 1232.44 277.311C1238.02 274.912 1244.01 273.713 1250.39 273.713C1256.79 273.713 1262.79 274.912 1268.38 277.311C1274 279.711 1278.91 283.046 1283.13 287.318C1287.37 291.56 1290.69 296.476 1293.09 302.064C1295.49 307.653 1296.7 313.651 1296.73 320.059C1296.76 326.466 1295.58 332.464 1293.18 338.053C1290.78 343.641 1287.46 348.571 1283.21 352.843C1278.97 357.086 1274.04 360.406 1268.42 362.806C1262.81 365.205 1256.79 366.404 1250.39 366.404ZM1250.39 356.222C1255.39 356.222 1260.09 355.286 1264.47 353.414C1268.86 351.541 1272.71 348.952 1276.02 345.645C1279.32 342.339 1281.91 338.506 1283.78 334.147C1285.66 329.758 1286.58 325.076 1286.55 320.102C1286.52 315.099 1285.57 310.403 1283.7 306.014C1281.82 301.625 1279.23 297.778 1275.93 294.472C1272.62 291.165 1268.79 288.576 1264.43 286.704C1260.07 284.831 1255.39 283.895 1250.39 283.895C1245.41 283.895 1240.74 284.831 1236.39 286.704C1232.03 288.576 1228.19 291.18 1224.89 294.516C1221.58 297.822 1218.98 301.669 1217.07 306.058C1215.2 310.418 1214.25 315.099 1214.22 320.102C1214.19 325.047 1215.11 329.714 1216.99 334.103C1218.86 338.462 1221.45 342.295 1224.76 345.601C1228.09 348.908 1231.94 351.512 1236.3 353.414C1240.69 355.286 1245.38 356.222 1250.39 356.222Z" fill="#F0D655"/>
</svg>
